<svg width="21" height="20" viewBox="0 0 21 20" fill="none" xmlns="http://www.w3.org/2000/svg">
<g clip-path="url(#clip0_1033_644)">
<path d="M15.0835 0.764282C14.1451 0.778878 13.2272 1.04083 12.4224 1.52367C11.6177 2.00652 10.9546 2.69317 10.5001 3.51428C10.0457 2.69317 9.38257 2.00652 8.57783 1.52367C7.77308 1.04083 6.85517 0.778878 5.91679 0.764282C4.42091 0.829274 3.01155 1.48366 1.99661 2.58448C0.981678 3.68529 0.443669 5.14305 0.500128 6.63928C0.500128 12.2851 9.63013 18.806 10.0185 19.0826L10.5001 19.4235L10.9818 19.0826C11.3701 18.8076 20.5001 12.2851 20.5001 6.63928C20.5566 5.14305 20.0186 3.68529 19.0036 2.58448C17.9887 1.48366 16.5793 0.829274 15.0835 0.764282ZM10.5001 17.3718C7.78929 15.3468 2.16679 10.3718 2.16679 6.63928C2.10983 5.58488 2.4721 4.55072 3.1746 3.76237C3.87709 2.97401 4.86282 2.49541 5.91679 2.43095C6.97077 2.49541 7.95649 2.97401 8.65899 3.76237C9.36149 4.55072 9.72376 5.58488 9.66679 6.63928H11.3335C11.2765 5.58488 11.6388 4.55072 12.3413 3.76237C13.0438 2.97401 14.0295 2.49541 15.0835 2.43095C16.1374 2.49541 17.1232 2.97401 17.8257 3.76237C18.5282 4.55072 18.8904 5.58488 18.8335 6.63928C18.8335 10.3734 13.211 15.3468 10.5001 17.3718Z" fill="black"/>
</g>
<defs>
<clipPath id="clip0_1033_644">
<rect width="20" height="20" fill="white" transform="translate(0.5)"/>
</clipPath>
</defs>
</svg>
